<svg width="1600" height="325" viewBox="0 0 1600 325" fill="none" xmlns="http://www.w3.org/2000/svg">
<path fill-rule="evenodd" clip-rule="evenodd" d="M0 103.736L66.6667 121.026C133.333 138.315 266.667 172.894 400 184.42C533.333 195.946 666.667 184.42 800 207.473C933.333 230.525 1066.67 288.157 1200 311.209C1333.33 334.262 1466.67 322.735 1533.33 316.972L1600 311.209V0H1533.33C1466.67 0 1333.33 0 1200 0C1066.67 0 933.333 0 800 0C666.667 0 533.333 0 400 0C266.667 0 133.333 0 66.6667 0H0V103.736Z" fill="#0F0F0F"/>
</svg>
