<svg width="35" height="35" viewBox="0 0 35 35" fill="none" xmlns="http://www.w3.org/2000/svg">
<path d="M17.0816 6.2998C12.4605 6.2998 8.12107 6.6498 5.81052 7.13926C4.27107 7.48926 2.93943 8.53926 2.66052 10.1498C2.38162 11.8287 2.09998 14.3498 2.09998 17.4998C2.09998 20.6498 2.37888 23.0998 2.72888 24.8498C3.01052 26.3893 4.33943 27.5104 5.87888 27.8604C8.33162 28.3498 12.5289 28.6998 17.15 28.6998C21.7711 28.6998 25.9683 28.3498 28.4183 27.8604C29.9605 27.5104 31.2894 26.4604 31.5683 24.8498C31.85 23.0998 32.2 20.5814 32.2683 17.4314C32.2683 14.2814 31.9183 11.7604 31.5683 10.0104C31.2894 8.4709 29.9605 7.3498 28.4183 6.9998C25.9683 6.6498 21.7 6.2998 17.0816 6.2998ZM17.0816 7.6998C22.1211 7.6998 26.1789 8.11816 28.1394 8.46816C29.1894 8.7498 30.0289 9.4498 30.1683 10.3604C30.5894 12.5998 30.8683 14.9814 30.8683 17.4314C30.8 20.4393 30.45 22.8893 30.1683 24.6393C29.9605 25.9682 28.5605 26.3893 28.1394 26.5314C25.6183 27.0209 21.4183 27.3682 17.2183 27.3682C13.0183 27.3682 8.74998 27.0893 6.29998 26.5314C5.24998 26.2498 4.41052 25.5498 4.27107 24.6393C3.71052 22.6787 3.49998 20.0893 3.49998 17.4998C3.49998 14.2787 3.78162 11.8998 4.06052 10.4314C4.27107 9.0998 5.73943 8.67871 6.08943 8.53926C8.39998 8.0498 12.6711 7.6998 17.0816 7.6998ZM13.3 11.8998V23.0998L23.1 17.4998L13.3 11.8998ZM14.7 14.2814L20.3 17.4998L14.7 20.7182V14.2814Z" fill="white"/>
</svg>
