<svg width="22" height="21" viewBox="0 0 22 21" fill="none" xmlns="http://www.w3.org/2000/svg">
<path d="M10.383 0.379897C10.1698 0.378179 9.98594 0.531147 9.94812 0.740835L9.7075 2.0574C9.50125 2.12443 9.30188 2.20521 9.10594 2.30146L8.02484 1.52115C7.85125 1.39568 7.61063 1.41287 7.45937 1.56583L6.51922 2.49052C6.36797 2.64177 6.34562 2.87896 6.46766 3.05427L7.22734 4.15427C7.12766 4.34849 7.04344 4.54787 6.97641 4.7524L5.65812 4.96552C5.44672 4.99818 5.29031 5.18037 5.28859 5.39693L5.28 6.71693C5.27828 6.93005 5.43125 7.11396 5.64094 7.15177L6.96266 7.3924C7.02797 7.59693 7.11047 7.79458 7.20672 7.9888L6.42125 9.07505C6.29578 9.24865 6.31297 9.48927 6.46422 9.64224L7.39234 10.5807C7.54188 10.7319 7.77906 10.7543 7.95438 10.6322L9.06812 9.86568C9.26062 9.96365 9.45828 10.0444 9.66109 10.1115L9.88797 11.4452C9.92406 11.6566 10.1045 11.8113 10.3194 11.813L11.6377 11.8199C11.8542 11.8216 12.0381 11.6652 12.0742 11.4538L12.2994 10.1218C12.5005 10.0565 12.6964 9.9774 12.8872 9.88115L13.9923 10.6666C14.1677 10.7904 14.4048 10.7697 14.5561 10.6202L15.4963 9.6938C15.6492 9.54255 15.6698 9.30193 15.5444 9.1249L14.7606 8.0249C14.8586 7.83412 14.9411 7.6399 15.0081 7.44052L16.347 7.21365C16.5567 7.17755 16.7114 6.99537 16.7131 6.78052L16.72 5.46224C16.7217 5.2474 16.567 5.06349 16.3539 5.0274L15.027 4.80224C14.9617 4.59943 14.8809 4.40177 14.7864 4.20755L15.5667 3.10583C15.6922 2.93224 15.6733 2.69505 15.522 2.54208L14.5939 1.60365C14.4427 1.4524 14.202 1.43005 14.0267 1.55552L12.937 2.32896C12.7445 2.23099 12.5486 2.14849 12.3475 2.08146L12.1344 0.758022C12.1 0.544897 11.9178 0.388491 11.7013 0.386772L10.383 0.379897ZM10.7473 1.26162L11.3248 1.26505L11.5156 2.45443C11.5431 2.62802 11.672 2.76724 11.8405 2.81021C12.1636 2.89271 12.4747 3.02505 12.7669 3.20209C12.9164 3.2949 13.1072 3.28802 13.2498 3.18662L14.2312 2.49052L14.6369 2.89958L13.9305 3.88959C13.8308 4.03224 13.8222 4.21958 13.9116 4.36912C14.0852 4.66302 14.2123 4.97583 14.288 5.29724C14.3292 5.46912 14.4684 5.59974 14.6438 5.63068L15.8383 5.83177L15.8348 6.40755L14.6283 6.61037C14.4564 6.63959 14.3172 6.76849 14.2742 6.93693C14.1934 7.25662 14.0645 7.56599 13.8875 7.85474C13.7964 8.00599 13.8033 8.19677 13.9064 8.33943L14.6094 9.33115L14.202 9.73505L13.2034 9.02693C13.0608 8.92552 12.8734 8.91865 12.7239 9.00802C12.4317 9.18162 12.1223 9.30537 11.8009 9.38443C11.6291 9.42568 11.5002 9.5649 11.4709 9.73849L11.2681 10.9382L10.6941 10.933L10.4913 9.7299C10.462 9.55802 10.3331 9.4188 10.1613 9.37755C9.84328 9.29849 9.53047 9.16787 9.23828 8.99255C9.09047 8.90318 8.90312 8.90833 8.76047 9.00802L7.75844 9.69896L7.35281 9.28818L8.05922 8.31193C8.16234 8.16927 8.17094 7.97849 8.07984 7.82724C7.90625 7.53333 7.77906 7.22052 7.7 6.8974C7.65875 6.72896 7.52297 6.60005 7.35109 6.5674L6.16172 6.35255L6.16687 5.77505L7.35109 5.58427C7.52469 5.55677 7.66563 5.42787 7.70859 5.25771C7.79109 4.93287 7.92 4.62005 8.09875 4.32787C8.18984 4.18005 8.18469 3.99099 8.085 3.84834L7.40266 2.85833L7.81172 2.45271L8.78453 3.15396C8.92547 3.25709 9.11453 3.26568 9.26578 3.17802C9.56141 3.00099 9.87594 2.87552 10.2008 2.79646C10.3709 2.75693 10.4998 2.61943 10.5308 2.44927L10.7473 1.26162ZM10.9948 3.91537C10.4294 3.91193 9.86219 4.12333 9.43078 4.5513C8.56797 5.4038 8.56109 6.80802 9.41359 7.67255C10.2661 8.53537 11.672 8.54224 12.5348 7.68974C13.3977 6.83724 13.4045 5.4313 12.552 4.56849C12.1258 4.13708 11.5603 3.9188 10.9948 3.91537ZM10.9914 4.79021C11.33 4.79193 11.6669 4.92427 11.9264 5.18724C12.4455 5.71146 12.4403 6.54505 11.9161 7.0624C11.3919 7.58146 10.5583 7.57802 10.0392 7.0538C9.52016 6.52787 9.52531 5.69427 10.0495 5.17693C10.3125 4.9174 10.6511 4.78849 10.9914 4.79021ZM6.34562 11.8199C5.1975 11.8199 4.66813 12.0949 4.0975 12.3149C4.0975 12.3166 4.0975 12.3166 4.0975 12.3166C3.00266 12.7429 1.12922 13.6263 1.12922 13.6263C0.909219 13.7294 0.814688 13.9924 0.917813 14.2124C1.02266 14.4324 1.28563 14.5269 1.50563 14.4238C1.50563 14.4238 3.39109 13.5352 4.41547 13.1365C5.04797 12.8907 5.32297 12.6999 6.34562 12.6999C8.60234 12.6999 8.51125 13.6796 9.46344 14.2399C9.47719 14.2485 9.49266 14.2571 9.50813 14.2622C10.6889 14.7916 11.9573 14.8999 12.98 14.8999C13.432 14.8999 13.7173 15.0047 13.872 15.1216C14.025 15.2402 14.08 15.3622 14.08 15.5599C14.08 15.7919 14.0216 15.9019 13.8686 16.0136C13.7173 16.1236 13.4252 16.2199 12.98 16.2199H10.67C9.70063 16.2199 8.03172 15.7936 8.03172 15.7936C7.88047 15.7524 7.71719 15.7971 7.60547 15.9088C7.49375 16.0205 7.45078 16.1838 7.49203 16.3351C7.535 16.488 7.65531 16.6066 7.80828 16.6461C7.80828 16.6461 9.46344 17.0999 10.67 17.0999H12.98C13.4286 17.0999 13.8187 17.026 14.1453 16.8644C14.1883 16.8524 14.2295 16.8335 14.2656 16.8077L18.4388 14.0697C19.0661 13.7071 19.4941 13.6057 19.745 13.6091C19.9959 13.6143 20.0819 13.6899 20.1575 13.7861C20.2692 13.9305 20.2761 13.9855 20.2039 14.1522C20.13 14.3207 19.9152 14.5802 19.5284 14.8483C19.5284 14.8483 19.5284 14.8483 19.5267 14.8483C19.0489 15.1818 13.7053 18.664 13.0883 19.0146C12.6225 19.2793 12.253 19.5577 11.8319 19.6763C11.4108 19.7932 10.9141 19.7932 10.0925 19.4013C9.54422 19.1383 7.21016 17.9421 6.45391 17.5588C6.03281 17.3457 5.67359 17.2254 5.3075 17.246C4.93969 17.2666 4.62859 17.423 4.30719 17.6258C4.30547 17.6258 4.30375 17.6276 4.30375 17.6293L3.21406 18.3254C3.07656 18.4079 2.99578 18.5591 3.00094 18.719C3.00609 18.8788 3.09891 19.0232 3.24156 19.0954C3.38594 19.1676 3.55609 19.1572 3.68844 19.0661L4.77297 18.3718C5.05313 18.1965 5.21125 18.1329 5.35563 18.1243C5.5 18.1157 5.69766 18.1621 6.05688 18.3443C6.80625 18.7241 9.10422 19.9032 9.71438 20.1936C10.6717 20.6526 11.4469 20.6955 12.0673 20.5236C12.6878 20.3501 13.1295 20.0029 13.5231 19.7794C14.3722 19.2965 19.4167 15.9965 20.0303 15.5702C20.4961 15.2454 20.8381 14.9068 21.0117 14.5011C21.1853 14.0955 21.1286 13.6005 20.8519 13.2465C20.8519 13.2465 20.8519 13.2465 20.8519 13.2447C20.6336 12.9663 20.2469 12.7394 19.7605 12.7291C19.4838 12.724 19.1761 12.7876 18.8341 12.913C18.7705 12.8288 18.6742 12.7188 18.5419 12.6226C18.2858 12.4318 17.8784 12.2599 17.325 12.2599C17.0414 12.2599 16.8094 12.3252 16.6238 12.4026C16.3591 12.1499 15.8898 11.8285 15.2075 11.8285C14.6541 11.8285 14.135 12.0141 13.7741 12.2272C13.707 12.2668 13.5455 12.3682 13.2705 12.5401C12.9955 12.7119 12.6362 12.9336 12.2822 13.1554C11.7167 13.5077 11.3661 13.7277 11.1633 13.8549C10.7319 13.769 10.3005 13.6469 9.89313 13.4682C9.54594 13.2447 8.87734 11.8199 6.34562 11.8199ZM15.2075 12.7085C15.4859 12.7085 15.6853 12.779 15.8263 12.8615L13.7913 14.123C13.5489 14.0543 13.2773 14.0199 12.98 14.0199C12.8528 14.0199 12.7136 14.0113 12.5813 14.0061C12.6637 13.9546 12.6637 13.9546 12.748 13.903C13.102 13.6813 13.4595 13.4579 13.7362 13.286C14.0113 13.1158 14.2364 12.9766 14.2209 12.9852C14.4289 12.8615 14.8809 12.7085 15.2075 12.7085ZM17.325 13.1399C17.6825 13.1399 17.875 13.231 17.9919 13.3118C17.985 13.3152 17.9798 13.3186 17.973 13.3238L14.9325 15.3176C14.8912 15.0718 14.7898 14.8363 14.6283 14.6404L16.7544 13.3221L16.7561 13.3186C16.7733 13.3101 17.1411 13.1399 17.325 13.1399Z" fill="#F24242"/>
</svg>
